<mxfile host="app.diagrams.net" modified="2020-10-22T18:48:29.306Z" agent="5.0 (Windows)" etag="U_18vUDfNKN7CXoInb5r" version="13.8.1" type="gitlab">
  <diagram id="kgpKYQtTHZ0yAKxKKP6v" name="Page-1">
    <mxGraphModel dx="782" dy="403" grid="1" gridSize="10" guides="1" tooltips="1" connect="1" arrows="1" fold="1" page="1" pageScale="1" pageWidth="850" pageHeight="1100" math="0" shadow="0">
      <root>
        <mxCell id="0" />
        <mxCell id="1" parent="0" />
        <mxCell id="3nuBFxr9cyL0pnOWT2aG-1" value=":Player&#xa;" style="shape=umlLifeline;perimeter=lifelinePerimeter;container=1;collapsible=0;recursiveResize=0;rounded=0;shadow=0;strokeWidth=1;" parent="1" vertex="1">
          <mxGeometry x="120" y="80" width="100" height="470" as="geometry" />
        </mxCell>
        <mxCell id="3nuBFxr9cyL0pnOWT2aG-2" value="" style="points=[];perimeter=orthogonalPerimeter;rounded=0;shadow=0;strokeWidth=1;" parent="3nuBFxr9cyL0pnOWT2aG-1" vertex="1">
          <mxGeometry x="45" y="70" width="10" height="370" as="geometry" />
        </mxCell>
        <mxCell id="3nuBFxr9cyL0pnOWT2aG-3" value="play()" style="verticalAlign=bottom;startArrow=oval;endArrow=block;startSize=8;shadow=0;strokeWidth=1;" parent="3nuBFxr9cyL0pnOWT2aG-1" target="3nuBFxr9cyL0pnOWT2aG-2" edge="1">
          <mxGeometry relative="1" as="geometry">
            <mxPoint x="-15" y="70" as="sourcePoint" />
          </mxGeometry>
        </mxCell>
        <mxCell id="pD4nlwfdIlVoPnKfltnv-7" value="" style="html=1;points=[];perimeter=orthogonalPerimeter;" vertex="1" parent="3nuBFxr9cyL0pnOWT2aG-1">
          <mxGeometry x="55" y="120" width="10" height="40" as="geometry" />
        </mxCell>
        <mxCell id="pD4nlwfdIlVoPnKfltnv-8" value="take_input()" style="edgeStyle=orthogonalEdgeStyle;html=1;align=left;spacingLeft=2;endArrow=block;rounded=0;entryX=1;entryY=0;" edge="1" target="pD4nlwfdIlVoPnKfltnv-7" parent="3nuBFxr9cyL0pnOWT2aG-1">
          <mxGeometry relative="1" as="geometry">
            <mxPoint x="60" y="100" as="sourcePoint" />
            <Array as="points">
              <mxPoint x="85" y="100" />
            </Array>
          </mxGeometry>
        </mxCell>
        <mxCell id="pD4nlwfdIlVoPnKfltnv-12" value="is_acceptable(coup)" style="html=1;verticalAlign=bottom;endArrow=block;" edge="1" parent="3nuBFxr9cyL0pnOWT2aG-1">
          <mxGeometry width="80" relative="1" as="geometry">
            <mxPoint x="60" y="190" as="sourcePoint" />
            <mxPoint x="410" y="190" as="targetPoint" />
          </mxGeometry>
        </mxCell>
        <mxCell id="3nuBFxr9cyL0pnOWT2aG-5" value=":Board" style="shape=umlLifeline;perimeter=lifelinePerimeter;container=1;collapsible=0;recursiveResize=0;rounded=0;shadow=0;strokeWidth=1;" parent="1" vertex="1">
          <mxGeometry x="490" y="80" width="100" height="490" as="geometry" />
        </mxCell>
        <mxCell id="3nuBFxr9cyL0pnOWT2aG-6" value="" style="points=[];perimeter=orthogonalPerimeter;rounded=0;shadow=0;strokeWidth=1;" parent="3nuBFxr9cyL0pnOWT2aG-5" vertex="1">
          <mxGeometry x="45" y="80" width="10" height="360" as="geometry" />
        </mxCell>
        <mxCell id="pD4nlwfdIlVoPnKfltnv-3" value=":Coup" style="shape=umlLifeline;perimeter=lifelinePerimeter;container=1;collapsible=0;recursiveResize=0;rounded=0;shadow=0;strokeWidth=1;" vertex="1" parent="1">
          <mxGeometry x="260" y="80" width="100" height="300" as="geometry" />
        </mxCell>
        <mxCell id="pD4nlwfdIlVoPnKfltnv-9" value="" style="html=1;points=[];perimeter=orthogonalPerimeter;" vertex="1" parent="pD4nlwfdIlVoPnKfltnv-3">
          <mxGeometry x="40" y="140" width="10" height="20" as="geometry" />
        </mxCell>
        <mxCell id="pD4nlwfdIlVoPnKfltnv-10" value="create" style="html=1;verticalAlign=bottom;endArrow=block;entryX=0;entryY=0;" edge="1" target="pD4nlwfdIlVoPnKfltnv-9" parent="1">
          <mxGeometry relative="1" as="geometry">
            <mxPoint x="190" y="220" as="sourcePoint" />
          </mxGeometry>
        </mxCell>
        <mxCell id="pD4nlwfdIlVoPnKfltnv-11" value="return Coup : coup" style="html=1;verticalAlign=bottom;endArrow=open;dashed=1;endSize=8;exitX=0;exitY=0.95;" edge="1" source="pD4nlwfdIlVoPnKfltnv-9" parent="1">
          <mxGeometry relative="1" as="geometry">
            <mxPoint x="190" y="239" as="targetPoint" />
          </mxGeometry>
        </mxCell>
        <mxCell id="pD4nlwfdIlVoPnKfltnv-20" value="if is_any_contigus(coup)" style="shape=umlFrame;whiteSpace=wrap;html=1;width=160;height=30;" vertex="1" parent="1">
          <mxGeometry x="370" y="290" width="400" height="200" as="geometry" />
        </mxCell>
        <mxCell id="pD4nlwfdIlVoPnKfltnv-21" value="if any_avaible_path()" style="shape=umlFrame;whiteSpace=wrap;html=1;width=130;height=30;" vertex="1" parent="1">
          <mxGeometry x="390" y="340" width="300" height="110" as="geometry" />
        </mxCell>
        <mxCell id="pD4nlwfdIlVoPnKfltnv-22" value="" style="html=1;points=[];perimeter=orthogonalPerimeter;" vertex="1" parent="1">
          <mxGeometry x="540" y="400" width="10" height="40" as="geometry" />
        </mxCell>
        <mxCell id="pD4nlwfdIlVoPnKfltnv-23" value="flip(coup)" style="edgeStyle=orthogonalEdgeStyle;html=1;align=left;spacingLeft=2;endArrow=block;rounded=0;entryX=1;entryY=0;" edge="1" target="pD4nlwfdIlVoPnKfltnv-22" parent="1">
          <mxGeometry relative="1" as="geometry">
            <mxPoint x="545" y="380" as="sourcePoint" />
            <Array as="points">
              <mxPoint x="570" y="380" />
            </Array>
          </mxGeometry>
        </mxCell>
        <mxCell id="pD4nlwfdIlVoPnKfltnv-24" value="return int : number_flipped_disks" style="html=1;verticalAlign=bottom;endArrow=open;dashed=1;endSize=8;" edge="1" parent="1" target="3nuBFxr9cyL0pnOWT2aG-1">
          <mxGeometry relative="1" as="geometry">
            <mxPoint x="530" y="440" as="sourcePoint" />
            <mxPoint x="450" y="440" as="targetPoint" />
          </mxGeometry>
        </mxCell>
      </root>
    </mxGraphModel>
  </diagram>
</mxfile>
